<svg xmlns="http://www.w3.org/2000/svg" width="114" height="129" viewBox="0 0 114 129">
    <g fill="none" fill-rule="evenodd">
        <g fill="#000" fill-rule="nonzero">
            <path d="M113.505 56.871a2.097 2.097 0 1 1-4.193 0c0-28.95-23.47-52.42-52.42-52.42-28.95 0-52.419 23.47-52.419 52.42a2.097 2.097 0 1 1-4.193 0C.28 25.605 25.626.258 56.892.258c31.267 0 56.613 25.347 56.613 56.613z"/>
            <path d="M56.227.862a2.097 2.097 0 1 1 2.69 3.217C48.304 12.952 41.937 25.98 41.38 39.774a2.097 2.097 0 0 1-4.19-.168c.604-14.971 7.513-29.109 19.037-38.744z"/>
        </g>
        <g fill="#000" fill-rule="nonzero">
            <path d="M40.58 56.871a2 2 0 1 1-4 0c0-9.096-7.188-16.452-16.032-16.452-8.844 0-16.032 7.356-16.032 16.452a2 2 0 1 1-4 0c0-11.285 8.958-20.452 20.032-20.452s20.033 9.167 20.033 20.452z"/>
            <path d="M77.484 57.71a2 2 0 1 1-4 0c0-9.569-7.386-17.29-16.452-17.29-9.065 0-16.451 7.721-16.451 17.29a2 2 0 1 1-4 0c0-11.74 9.136-21.29 20.451-21.29 11.316 0 20.452 9.55 20.452 21.29z"/>
            <path d="M113.548 56.871a2 2 0 1 1-4 0c0-9.096-7.188-16.452-16.032-16.452-8.844 0-16.032 7.356-16.032 16.452a2 2 0 1 1-4 0c0-11.285 8.958-20.452 20.032-20.452s20.032 9.167 20.032 20.452z"/>
        </g>
        <path fill="#000" fill-rule="nonzero" d="M3.172 54.333a2.097 2.097 0 1 1 2.473-3.387l22.433 16.382a2.097 2.097 0 0 1-2.473 3.386L3.172 54.334zM37.756 54.793a2.097 2.097 0 0 1 3.327-2.553L54.87 70.206a2.097 2.097 0 1 1-3.327 2.553L37.756 54.793zM72.747 51.4a2.097 2.097 0 0 1 3.357 2.514L63.225 71.108a2.097 2.097 0 1 1-3.356-2.515L72.747 51.4zM110.31 49.327l2.284 3.518L83.21 71.914l-2.283-3.518z"/>
        <path fill="#F04D7D" d="M92.258 80.013v45.91a3 3 0 0 1-3 3H38.226a3 3 0 0 1-3-3V80.228a3 3 0 0 1 2.987-3l51.032-.215a3 3 0 0 1 3.013 3z" opacity=".2"/>
        <path fill="#000" fill-rule="nonzero" d="M28.935 70.708v47.772h53.143V70.483l-53.143.225zm57.336-2.33v52.199a2.097 2.097 0 0 1-2.096 2.097H26.839a2.097 2.097 0 0 1-2.097-2.097V68.62c0-1.155.933-2.092 2.088-2.097l57.336-.242a2.097 2.097 0 0 1 2.105 2.096z"/>
        <path fill="#F04D7D" d="M44.698 66.103h22.558V88.66H44.698z"/>
        <path fill="#000" fill-rule="nonzero" d="M37.648 107.2a2.097 2.097 0 1 1 0-4.193h14.099a2.097 2.097 0 1 1 0 4.194h-14.1zM37.648 114.72a2.097 2.097 0 1 1 0-4.193h7.52a2.097 2.097 0 0 1 0 4.193h-7.52z"/>
    </g>
</svg>
