<svg xmlns="http://www.w3.org/2000/svg" xmlns:xlink="http://www.w3.org/1999/xlink" width="115" height="130" viewBox="0 0 115 130">
    <defs>
        <path id="a" d="M.209.523h51.374v59.025H.21z"/>
        <path id="c" d="M0 .097h114.908V104.58H0z"/>
        <path id="e" d="M0 .096h114.908V106.26H0z"/>
    </defs>
    <g fill="none" fill-rule="evenodd">
        <g opacity=".2" transform="translate(39.42 70.356)">
            <mask id="b" fill="#fff">
                <use xlink:href="#a"/>
            </mask>
            <path fill="#F04D7D" d="M.422 13.054v-9.82c0-1.385 1.12-2.51 2.505-2.516l46.13-.195a2.517 2.517 0 0 1 2.526 2.505v54.004a2.516 2.516 0 0 1-2.516 2.517H2.905A2.515 2.515 0 0 1 .39 57.064C.138 37.075.148 24.937.422 20.646" mask="url(#b)"/>
        </g>
        <g transform="translate(0 .743)">
            <mask id="d" fill="#fff">
                <use xlink:href="#c"/>
            </mask>
            <path fill="#000" d="M23.775 104.581c-.395 0-.795-.111-1.15-.344-2.728-1.791-4.548-4.52-5.127-7.685l-1.693-9.26c-.064-.355-.294-.65-.645-.828l-8.656-4.407C3.683 80.62 1.587 78.229.603 75.323c-.99-2.924-.755-6.066.662-8.85l4.304-8.446c.16-.315.16-.648 0-.964l-4.303-8.447C-.15 45.834-.387 42.69.604 39.766c.984-2.905 3.079-5.297 5.9-6.733l8.656-4.407c.35-.178.58-.473.646-.83l1.692-9.259c1.145-6.26 7.14-10.477 13.66-9.588l9.701 1.317c.418.053.836-.069 1.134-.346l7.042-6.537c4.721-4.383 12.117-4.381 16.839 0l7.042 6.537a1.37 1.37 0 0 0 1.134.345l9.702-1.317c6.508-.881 12.513 3.327 13.658 9.588l1.693 9.261c.066.356.294.65.645.83l8.656 4.406c2.821 1.436 4.917 3.828 5.901 6.734.99 2.923.756 6.066-.663 8.848l-4.302 8.448a1.023 1.023 0 0 0 0 .964 2.097 2.097 0 0 1-3.737 1.903 5.207 5.207 0 0 1 0-4.771l4.303-8.447c.9-1.766 1.052-3.756.427-5.6-.63-1.864-1.992-3.405-3.831-4.342l-8.657-4.407c-1.52-.774-2.565-2.163-2.867-3.81l-1.693-9.262c-.741-4.052-4.676-6.769-8.969-6.187l-9.703 1.317a5.561 5.561 0 0 1-4.55-1.428L63.02 6.456c-3.121-2.898-8.012-2.896-11.132 0l-7.042 6.538a5.562 5.562 0 0 1-4.55 1.428l-9.703-1.318c-4.291-.58-8.23 2.136-8.97 6.188l-1.692 9.26c-.302 1.648-1.347 3.037-2.868 3.812L8.407 36.77c-1.84.937-3.201 2.48-3.832 4.342-.625 1.844-.473 3.834.428 5.6l4.302 8.448a5.202 5.202 0 0 1 0 4.77l-4.303 8.448c-.9 1.766-1.052 3.755-.427 5.6.63 1.862 1.992 3.405 3.832 4.342l8.656 4.406c1.52.774 2.565 2.163 2.868 3.81l1.692 9.262c.37 2.026 1.544 3.778 3.305 4.934a2.097 2.097 0 0 1-1.153 3.85" mask="url(#d)"/>
        </g>
        <g transform="translate(0 .743)">
            <mask id="f" fill="#fff">
                <use xlink:href="#e"/>
            </mask>
            <path fill="#000" d="M85.482 106.257a10.525 10.525 0 0 1-1.73-.117l.562-4.155a9.9 9.9 0 0 0 1.166.079c.83 0 1.65-.123 2.436-.364 2.803-.86 4.86-3.121 5.37-5.902l1.692-9.26c.302-1.65 1.348-3.04 2.87-3.813l8.653-4.405c1.84-.937 3.201-2.48 3.832-4.342.625-1.846.473-3.834-.427-5.6l-4.303-8.447a5.202 5.202 0 0 1 0-4.771l4.303-8.447c.9-1.767 1.052-3.757.427-5.601-.63-1.864-1.992-3.405-3.831-4.342l-8.656-4.407c-1.522-.774-2.567-2.163-2.868-3.81l-1.693-9.26c-.742-4.054-4.687-6.772-8.97-6.189l-9.702 1.317a5.56 5.56 0 0 1-4.55-1.428L63.02 6.456c-3.122-2.898-8.012-2.896-11.132 0l-7.042 6.537a5.557 5.557 0 0 1-4.551 1.428l-9.702-1.317c-4.284-.586-8.229 2.135-8.97 6.187l-1.692 9.26c-.303 1.649-1.348 3.038-2.868 3.812L8.407 36.77c-1.84.937-3.201 2.478-3.832 4.341-.625 1.845-.473 3.834.427 5.601l4.303 8.447a5.202 5.202 0 0 1 0 4.771L5.57 58.027c.16-.316.161-.65 0-.964l-4.303-8.448C-.152 45.833-.387 42.69.603 39.767c.984-2.906 3.08-5.298 5.901-6.734l8.656-4.407c.351-.179.58-.474.645-.83l1.693-9.259c1.146-6.262 7.147-10.475 13.66-9.588l9.7 1.316c.422.056.836-.069 1.135-.345l7.042-6.537C53.756-1 61.153-1 65.873 3.383l7.044 6.537c.296.277.707.401 1.134.346l9.7-1.317c6.508-.888 12.514 3.327 13.66 9.588l1.692 9.26c.065.356.294.651.646.83l8.654 4.406c2.822 1.436 4.918 3.828 5.902 6.734.99 2.923.756 6.067-.662 8.849l-4.304 8.447c-.16.316-.16.649 0 .964l4.304 8.447c1.418 2.783 1.653 5.925.662 8.849-.984 2.906-3.08 5.297-5.9 6.734l-8.656 4.406c-.352.18-.58.474-.646.83l-1.693 9.26c-.791 4.326-3.958 7.835-8.264 9.156a12.494 12.494 0 0 1-3.664.548" mask="url(#f)"/>
        </g>
        <path fill="#000" d="M31.084 65.418a2.096 2.096 0 1 1 0 4.194h-13.05l-.165-.007c-3.538-.28-5.731-2.184-5.731-5.39 0-2.95 1.848-5.126 5.09-6.369l39.018-17.664a2.097 2.097 0 0 1 1.73 3.82L18.899 61.694l-.124.052c-1.784.673-2.444 1.443-2.444 2.47 0 .78.328 1.078 1.79 1.203h12.963zM82.985 69.612a2.096 2.096 0 1 1 0-4.194h13.11c2.55.144 3.139-.227 3.139-1.203 0-.95-1.13-2.052-3.91-3.151L62.669 46.2a2.097 2.097 0 1 1 1.737-3.817l32.513 14.8c4.169 1.66 6.51 3.954 6.51 7.031 0 3.812-2.874 5.64-7.391 5.397H82.985z"/>
        <path fill="#000" d="M59.571 42.386A2.097 2.097 0 1 1 55.55 41.2c.47-1.595 1.876-3.609 3.26-5.128 1.72-1.89 2.42-3.227 2.42-4.623a3.774 3.774 0 0 0-7.549 0 2.097 2.097 0 0 1-4.193 0 7.968 7.968 0 0 1 15.935 0c0 2.65-1.156 4.856-3.513 7.445-.98 1.078-2.099 2.679-2.338 3.492M33.55 74.66a2.096 2.096 0 1 1-4.193 0V61.858c0-1.154.934-2.091 2.088-2.096l51.161-.216a2.097 2.097 0 0 1 2.106 2.097v59.036a2.096 2.096 0 0 1-2.097 2.096h-51.16a2.097 2.097 0 0 1-2.098-2.069c-.285-21.539-.285-34.52.005-39.063a2.098 2.098 0 0 1 4.185.266c-.27 4.244-.28 16.505-.023 36.673H80.52V63.748l-46.968.199V74.66z"/>
        <path fill="#F04D7D" d="M52.74 107.333c-.748 0-1.479-.25-2.073-.717L39.447 97.8a3.355 3.355 0 0 1 4.144-5.276l8.516 6.69 17.635-23.642a3.355 3.355 0 0 1 5.379 4.012l-19.692 26.4a3.354 3.354 0 0 1-2.69 1.349"/>
    </g>
</svg>
