<svg xmlns="http://www.w3.org/2000/svg" width="142" height="130" viewBox="0 0 142 130">
    <g fill="none" fill-rule="evenodd">
        <path fill="#F04D7D" fill-opacity=".2" d="M69.598 85.842l-16.022 3.353a2.004 2.004 0 0 1-2.415-1.962v-26.08c0-.895.594-1.682 1.456-1.927l27.97-7.957c1.53-.436 2.933 1 2.463 2.52a14.01 14.01 0 0 0-.626 4.158c0 7.747 6.28 14.028 14.028 14.028 7.747 0 14.028-6.28 14.028-14.028 0-1.437-.215-2.841-.634-4.182-.474-1.522.931-2.961 2.464-2.524l27.978 7.985a2.004 2.004 0 0 1 1.454 1.927v26.08a2.004 2.004 0 0 1-2.418 1.961l-16.82-3.554v42.046a2.004 2.004 0 0 1-2.004 2.004H71.602a2.004 2.004 0 0 1-2.004-2.004V85.842z"/>
        <path fill="#000" fill-rule="nonzero" d="M112.42 95.787l-3.057-2.871a52.44 52.44 0 0 0 10.726-17.059l3.913 1.507a56.633 56.633 0 0 1-11.583 18.423zM127.16 48.736a2.097 2.097 0 1 1-4.15.61C119.258 23.79 97.24 4.613 71.15 4.613c-10.736 0-20.985 3.233-29.643 9.18a2.097 2.097 0 1 1-2.375-3.456C48.484 3.913 59.559.42 71.151.42c28.177 0 51.954 20.711 56.009 48.317zM30.509 17.62a2.097 2.097 0 1 1 3.01 2.92c-9.425 9.718-14.788 22.68-14.788 36.492a2.097 2.097 0 0 1-4.193 0c0-14.913 5.794-28.92 15.97-39.411z"/>
        <path fill="#000" fill-rule="nonzero" d="M9.711 45.822a2.097 2.097 0 1 0-3.417 2.431l8.717 12.251a2.097 2.097 0 0 0 3.417 0l8.717-12.25a2.097 2.097 0 0 0-3.416-2.432l-7.01 9.85-7.008-9.85z"/>
        <g fill="#000" fill-rule="nonzero">
            <path d="M69.693 50.162a2.097 2.097 0 0 1-1.73-3.82l16.377-7.415a2.097 2.097 0 1 1 1.73 3.82l-16.377 7.415zM90.762 44.945a2.097 2.097 0 0 1 1.737-3.816l10.686 4.864a2.097 2.097 0 0 1-1.738 3.817l-10.685-4.865z"/>
            <path d="M87.666 41.13a2.097 2.097 0 1 1-4.023-1.185c.47-1.595 1.876-3.61 3.259-5.129 1.72-1.89 2.42-3.226 2.42-4.622a3.774 3.774 0 0 0-7.548 0 2.097 2.097 0 0 1-4.193 0 7.968 7.968 0 0 1 15.935 0c0 2.65-1.157 4.856-3.513 7.445-.98 1.078-2.098 2.678-2.337 3.491z"/>
            <path d="M42.355 52.713v23.123l16.764-3.508a2.097 2.097 0 0 1 2.526 2.052v44.265h46.968v-44.48a2.097 2.097 0 0 1 2.53-2.052l17.599 3.718V52.71l-24.431-6.973c.072.673.108 1.352.108 2.036 0 10.422-8.448 18.871-18.87 18.871-10.423 0-18.872-8.449-18.872-18.87 0-.676.036-1.347.106-2.012l-24.428 6.95zM57.452 76.96L40.687 80.47a2.097 2.097 0 0 1-2.526-2.052V51.129c0-.937.622-1.76 1.523-2.017l29.265-8.325c1.601-.455 3.07 1.047 2.577 2.637a14.673 14.673 0 0 0-.655 4.35c0 8.106 6.571 14.678 14.677 14.678 8.107 0 14.678-6.572 14.678-14.678 0-1.502-.225-2.972-.663-4.376-.496-1.591.974-3.098 2.577-2.64l29.274 8.355c.9.257 1.521 1.08 1.521 2.016v27.288a2.097 2.097 0 0 1-2.53 2.051l-17.599-3.718v43.992a2.097 2.097 0 0 1-2.096 2.097H59.548a2.097 2.097 0 0 1-2.096-2.097v-43.78z"/>
        </g>
        <path fill="#F04D7D" d="M.788 72.129h30.328v7.85l-15.902 39.118H5.418L20.85 80.986H.788z"/>
    </g>
</svg>
